<svg xmlns="http://www.w3.org/2000/svg" viewBox="-1.2 -256.3 1930.4 334.43"><path fill="currentColor" d="M64.8-163.8c0-15.2 1.8-25.2 22.8-29.6v-1.8H6.8v1.8c21 4.4 22.8 14.4 22.8 29.6v132.4c0 15.2-1.8 25.2-22.8 29.6V0h80.8v-1.8c-21-4.4-22.8-14.4-22.8-29.6Zm86.4 26c-22.8 0-39.6 10.8-47.2 26.8-2.4 5.2-3.6 11.2-3.2 17.4 1 21.6 19.2 32.8 36.4 42 8.2 4.6 17 8.6 24.2 13.2 9.8 5.8 15.2 13 14.6 21-.8 11-9.6 15.4-20 15.4-21.2 0-43.4-21-53.6-42h-1.8l3.2 38.2c11.6 6 30 7.8 44.4 7.8 16.2 0 33.4-6.8 42.6-19.8 4.4-6 6.4-14 6.2-21.8-.6-23.2-19.8-32.6-38.2-41.6-19.2-9.6-37.4-18.6-38.4-34.2-.8-11.4 9.2-18 20.4-18 22.2 0 36.6 20.8 47.2 37.8h2l-2.2-34.2c-10.8-6-23.8-8-36.6-8m76-33.2v142.2c0 14.4 0 23.2-19.2 27V0h72.6v-1.8c-19.4-3.8-19.4-12.6-19.4-27l.2-186.8-1.4-.8c-15.8 9.8-33.6 16.8-51.2 21.2v1.8c15.8 1.4 18.4 11 18.4 22.4m98.4 136.2c-.2-19.2 17.2-29 44-37.8-.8 15.4-2.2 29.4-2.4 42.6v2.2c-5.2 6.6-13.2 12-22.2 12.2-11.4 0-19.4-8-19.4-19.2M292.2-27C292-7 305.4 2 323 2c19 0 32.8-11.6 44.4-25.8.2 9.8 2.2 19.2 5.4 24.8l1.2.8c11.4.2 36.6-5.6 48.2-14.8v-1.4c-17.8-.8-19.6-13-19.8-19.4-.8-21.4 2-43.6 2-63.2 0-20.4-9.2-40.8-38.6-40.8-24.8 0-70 16.4-70.2 40.8 0 9.2 7.4 14.2 15.8 14.2 6.4 0 12.2-2.8 15.4-8.4.8-6 1.4-14.4 2.6-20.8 2.2-11.2 7.4-19.2 20-19.2 14 0 21 14.6 21 34 0 7.2-.2 14.4-.6 21-33.2 9.4-77 20-77.6 49.2m276.6-1.8v-72.4c0-25.8-16.6-36.6-35-36.6-22.4 0-42.8 18-53 35.6v-35.6l-1.4-.8c-17.2 9-33.6 15.6-51.2 19.8v2c15.8 1.2 18.4 10.8 18.4 22.2v65.8c0 14.4 0 23.2-17.6 27V0h69.4v-1.8c-17.8-3.8-17.8-12.6-17.8-27l.2-66.6c6.4-13.4 21.2-25.8 34.4-25.8 11.4 0 19.6 8.8 19.6 27.2v65.2c0 14.4 0 23.2-17.6 27V0h69.4v-1.8c-17.8-3.8-17.8-12.6-17.8-27m62.8-53.6c0-17.2 2.4-51.2 26-51.2 9.2 0 19.2 5.2 26.6 17.4 5.8 9.8 9.6 24 9.6 43.4v35.6C691-26.6 680.8-12 667.2-12c-31.4 0-35.6-47.6-35.6-70.4m31.2-55.4c-41.6 0-65.4 29.2-65.4 76.8 0 45.2 25.6 63 51.4 63 19.2 0 35.8-10.4 45-29.6V1.2l1.4.8c13.4-6.2 32.8-12.2 50.6-14.8v-2C729.8-18.4 728-25.6 728-37v-178.6l-1.4-.8c-15.8 9.8-33.6 16.8-51 21.2v1.8c15.6 1.2 18.2 11 18.2 22.4v42.2c-7.6-5.4-18.2-9-31-9m349.739 80.159c-.655-1.31-1.965-1.31-3.276-.655-2.621 1.966-5.241 3.931-7.207 5.897-10.483 7.862-21.622 15.725-32.76 22.932-4.586 2.621-9.173 4.586-14.414 5.897-1.311.655-1.966.655-3.276.655-.656 0-1.966 0-2.621-.655-1.966-1.966-.655-3.932 0-5.897 1.965-3.276 3.276-6.552 5.241-9.828 4.587-8.518 9.828-17.035 15.07-25.553 1.31-2.621 3.276-5.242 4.586-8.518 1.966-3.931 1.966-7.862 0-12.448-1.965-3.276-3.276-5.242-5.896-5.242-1.311 0-2.621.655-3.932 1.31-4.586 1.311-8.517 3.932-12.448 7.208-9.828 8.517-20.312 17.035-30.795 24.897-2.621 1.966-3.931 4.587-8.517 5.242.655-3.276 2.62-5.897 3.931-8.518 3.931-7.862 8.517-15.725 13.104-23.587 1.965-3.276 3.276-7.207 2.621-11.794-.656-7.207-3.276-12.448-9.173-12.448-1.966 0-5.242.655-8.518 2.62-6.552 3.276-12.449 7.863-19.001 11.794a291 291 0 0 0-36.691 32.76c-1.31.655-1.965 3.276-5.241 2.621 0-5.897 17.69-34.726 21.621-39.967.655-1.311 1.966-3.276 3.276-4.587.655-1.31 1.966-1.965 3.276-1.965 3.931-.656 4.587-1.966 3.931-3.932-.655-5.241-3.276-9.172-7.207-11.793-.655-1.311-1.965-1.311-2.621-1.311-1.31 0-1.965 0-2.62 1.311-15.07 15.069-33.416 53.726-40.623 73.382-1.965 3.931-3.276 8.518-4.586 13.104-1.966 5.897-.655 11.139 3.276 15.725 1.31 1.966 2.621 2.621 4.586 2.621q1.966 0 3.931-1.966c2.621-1.965 4.587-3.931 6.552-6.552 5.897-5.897 11.794-12.449 17.036-19.001 13.759-13.759 28.173-26.863 44.553-38.001.655-.655 1.311-1.966 2.621-1.966 0 0 .655 0 1.31.655 0 3.276-1.965 5.242-3.931 8.518-2.621 5.897-5.897 11.794-9.173 17.69-1.31 3.276-1.965 6.552-3.276 9.828-1.965 5.897-.655 11.139 2.621 15.725 1.966 2.621 3.931 3.931 6.552 3.931 1.311 0 2.621 0 3.931-.655 3.276-1.31 6.552-3.276 9.173-5.897 6.552-4.586 13.104-9.828 19.656-15.069 2.621-1.966 4.587-5.242 9.173-6.552-1.966 7.207-4.586 13.104-5.897 19.001-.655 5.896 0 11.138 1.966 16.38 2.621 5.241 5.897 7.207 10.483 7.207 1.31 0 2.621 0 4.586-.655 5.242-1.311 9.828-4.587 14.415-7.208 14.414-9.828 28.173-20.311 40.622-32.76q1.967-1.965 0-3.931m87.142-1.31c-.655-1.966-1.966-3.276-3.931-3.276-.656 0-1.311 0-2.621.655-15.725 7.862-32.105 13.759-48.485 19.656-7.207 1.966-15.07 4.586-22.932 5.897h-4.586c-3.276 0-7.863-.655-7.863-4.587 0-6.552 1.966-13.104 5.897-18.345.655-.655 1.966-1.311 2.621-.655 1.31.655 2.621 1.31 3.276 1.965 4.586 3.276 9.173 4.587 13.759 4.587 9.828 0 22.277-7.208 28.829-14.415 2.621-1.965 4.586-4.586 6.552-7.862 3.276-4.587 3.276-9.828.655-15.07-3.276-7.862-8.518-11.138-16.38-11.138-2.621 0-4.586.655-6.552.655-24.898 5.897-49.14 22.277-49.14 50.45a29.03 29.03 0 0 0 7.207 21.622c4.587 5.897 9.828 7.862 17.035 7.862 16.38 0 53.072-19.656 66.831-27.518 3.276-1.31 5.897-3.276 9.173-5.242 1.965-1.31 1.965-3.276.655-5.241m-43.243-26.863c-3.276 5.896-6.552 9.172-14.415 13.104-4.586 1.965-8.517 4.586-14.414 4.586h-3.276c6.552-9.828 19.656-16.38 32.105-17.69m132.35 26.863c-.655-1.966-1.966-3.276-3.931-3.276-.655 0-1.311 0-2.621.655-15.725 7.862-32.105 13.759-48.485 19.656-7.207 1.966-15.069 4.586-22.932 5.897h-4.586c-3.276 0-7.863-.655-7.863-4.587 0-6.552 1.966-13.104 5.897-18.345.655-.655 1.966-1.311 2.621-.655 1.31.655 2.621 1.31 3.276 1.965 4.586 3.276 9.173 4.587 13.759 4.587 9.828 0 22.277-7.208 28.829-14.415 2.621-1.965 4.586-4.586 6.552-7.862 3.276-4.587 3.276-9.828.655-15.07-3.276-7.862-8.517-11.138-16.38-11.138-2.621 0-4.586.655-6.552.655-24.897 5.897-49.14 22.277-49.14 50.45a29.03 29.03 0 0 0 7.207 21.622c4.587 5.897 9.828 7.862 17.036 7.862 16.38 0 53.071-19.656 66.83-27.518 3.276-1.31 5.897-3.276 9.173-5.242 1.965-1.31 1.965-3.276.655-5.241m-43.243-26.863c-3.276 5.896-6.552 9.172-14.415 13.104-4.586 1.965-8.517 4.586-14.414 4.586h-3.276c6.552-9.828 19.656-16.38 32.105-17.69m245.7-62.9c-1.966-.655-3.931-1.31-6.552-2.62-38.002-10.484-79.935-16.38-118.591-16.38q-3.931 0-1.966-3.932c11.794-17.035 24.242-34.07 38.002-49.795 1.965-1.965 4.586-3.931 6.552-6.552q1.965-1.965 3.931-1.965c1.31 0 1.965 0 3.276.655 1.965.655 3.276-.655 3.276-2.621 0-.655.655-1.31.655-2.621-.655-1.31-.655-3.931-.655-5.897-1.311-5.241-3.931-7.862-7.207-7.862-1.966 0-4.587 1.31-7.208 3.931-22.276 19.656-40.622 46.519-57.002 70.762-2.621 4.586-6.552 6.552-11.794 7.207-32.104 1.966-63.554 5.242-95.659 11.138-3.931.656-8.517 1.966-12.449 3.276-3.276 1.311-3.931 3.932-3.931 6.552 0 4.587 2.621 7.208 6.552 8.518 7.863 3.931 15.725 7.207 24.243 11.138 11.793 5.242 28.173 15.07 34.725 26.864 5.242 8.517 5.897 17.035 1.966 26.208-14.415 31.449-26.863 62.899-37.347 95.659-3.931 11.138-5.896 22.277-9.172 33.415-1.311 5.242 0 9.828 4.586 13.104.655.655 1.31.655 1.966.655 1.31 0 2.62-.655 3.276-1.965l1.965-5.897c1.966-6.552 4.587-13.104 7.863-18.346 17.69-26.208 35.38-68.141 38.001-100.901 0-4.586 1.311-8.517 3.276-11.793 12.449-28.174 27.519-55.037 43.899-81.245 2.62-3.931 5.241-5.897 9.828-5.897 34.725 0 95.659 2.621 129.074 14.415.655 0 1.31.655 1.966.655 1.31 0 1.965-.655 2.62-1.966q.983-3.931-1.965-5.897m-157.903-3.276c-11.139 19.001-22.277 37.347-32.105 57.658-4.587-3.931-5.242-9.173-7.207-13.104-3.276-3.931-5.897-8.518-9.828-11.794-3.276-3.276-6.552-6.552-10.484-9.828-3.931-2.62-8.517-5.241-13.104-7.862-3.931-2.621-8.517-3.276-13.104-7.207 26.864-7.863 58.313-9.173 85.832-10.483zm94.348 107.453c-.655-1.31-1.965-1.965-3.276-1.965-3.276.655-6.552 1.31-9.828 2.62-8.517 1.966-16.38 3.932-26.208 6.552-1.31-12.448-8.517-19-17.69-24.897-1.966-1.311-4.586-2.621-6.552-4.587s-2.621-3.931-.655-6.552c6.552-9.172 15.725-15.724 26.863-19 1.31-.656 1.966-.656 3.276-.656s2.621.656 2.621 2.621c.655 1.966.655 4.587 1.31 6.552.655 1.966 1.311 4.587 3.931 4.587s2.621-2.621 2.621-4.587c0-4.586.655-9.173 0-13.104-1.31-9.173-5.241-13.104-11.138-13.104-11.139 0-26.208 11.794-32.76 19.656-9.828 12.449-9.173 31.45 4.586 41.278 3.276 1.965 6.552 4.586 9.828 6.552 5.897 4.586 5.242 7.207-1.31 10.483-1.966.655-4.587 1.31-6.552 1.966-6.552 2.62-13.104 5.241-19.001 7.862-3.931 1.966-7.207 3.931-10.483 6.552-3.276 1.966-4.587 5.897-4.587 9.828 0 8.518 3.276 13.104 9.173 13.104 13.759 0 35.381-18.346 41.933-29.484 2.621-3.931 5.897-5.897 10.483-7.862 9.173-2.621 17.691-5.897 26.863-9.173 1.966-.655 3.276-.655 4.587-1.311 1.965-.655 1.965-1.965 1.965-3.931"/><path fill="currentColor" d="M1424.4-163.8c0-15.2 1.8-25.2 22.8-29.6v-1.8h-80.8v1.8c21 4.4 22.8 14.4 22.8 29.6v132.4c0 15.2-1.8 25.2-22.8 29.6V0h80.8v-1.8c-21-4.4-22.8-14.4-22.8-29.6Zm115 141.4c-6.2 6.4-13.2 9.6-19.4 9.6-10 0-15.4-6.2-15.4-20.4v-94h31.6v-7.8h-31.6v-37.2h-2.4c-12.8 23.2-31.8 36.8-50.6 43v2h19v93.4c0 19.8 7.2 35.8 31.2 35.8 19.2 0 31.4-11.8 39.4-23Zm48.8-12.4c-.2-19.2 17.2-29 44-37.8-.8 15.4-2.2 29.4-2.4 42.6v2.2c-5.2 6.6-13.2 12-22.2 12.2-11.4 0-19.4-8-19.4-19.2m-33.4 7.8c-.2 20 13.2 29 30.8 29 19 0 32.8-11.6 44.4-25.8.2 9.8 2.2 19.2 5.4 24.8l1.2.8c11.4.2 36.6-5.6 48.2-14.8v-1.4c-17.8-.8-19.6-13-19.8-19.4-.8-21.4 2-43.6 2-63.2 0-20.4-9.2-40.8-38.6-40.8-24.8 0-70 16.4-70.2 40.8 0 9.2 7.4 14.2 15.8 14.2 6.4 0 12.2-2.8 15.4-8.4.8-6 1.4-14.4 2.6-20.8 2.2-11.2 7.4-19.2 20-19.2 14 0 21 14.6 21 34 0 7.2-.2 14.4-.6 21-33.2 9.4-77 20-77.6 49.2m154.4-144v142.2c0 14.4 0 23.2-19.2 27V0h72.6v-1.8c-19.4-3.8-19.4-12.6-19.4-27l.2-186.8-1.4-.8c-15.8 9.8-33.6 16.8-51.2 21.2v1.8c15.8 1.4 18.4 11 18.4 22.4m119.6 197c-4.4 9.8-8.6 12.6-13.4 12.2-6.6-.6-13.8-7.2-20.2-7.8-10.6-1-17 6.8-17 15.2 0 8 6.4 17.8 19.4 17.8 10 0 16.4-4.2 22.4-11.8 5-6 8.8-14 12.6-21.8l30.2-67.8 26.4-60.8c6.8-15.6 12.8-27.6 32-34.4v-1.8H1867v1.8c14.6 4.4 17.2 10 17.2 17.4 0 9.6-7.8 32-15.6 51.4-3.2 7.8-6 16-8.8 23l-29-65.2c-5.8-13.2-6.8-19 12.4-26.6v-1.8h-80.6v1.8c16.4 4.8 22.6 12.8 29.6 27.8L1841 0Z"/></svg>